<svg xmlns="http://www.w3.org/2000/svg" xml:space="preserve" width="655.359" height="655.359" style="shape-rendering:geometricPrecision;text-rendering:geometricPrecision;image-rendering:optimizeQuality;fill-rule:evenodd;clip-rule:evenodd" viewBox="0 0 6.827 6.827"><defs><style>.fil1,.fil2{fill:#fffffe}.fil2{fill-rule:nonzero}</style></defs><g id="Layer_x0020_1"><circle cx="3.413" cy="3.413" r="3.413" style="fill:#ab47bc"/><g id="_499997480"><path id="_499998392" class="fil1" d="M4.984 4.6a.638.638 0 0 1-1.272 0h1.272z"/><path id="_499998344" class="fil1" d="M4.155 5.098h.387l.042.182h-.472z"/><path id="_499998680" class="fil2" d="M4.518 4.487a.29.29 0 0 1 .363-.308c.024.006.04.027.04.05a.29.29 0 0 1-.362.308.056.056 0 0 1-.04-.05z"/><path id="_499998464" class="fil2" d="M4.558 4.394a.233.233 0 0 1-.018.11.055.055 0 0 1-.053.034.233.233 0 0 1-.225-.212c-.004-.044.004-.146.07-.145a.233.233 0 0 1 .226.213z"/><path id="_499998080" class="fil1" d="m4.497 4.516-.02.11a.033.033 0 0 0 .028.039.034.034 0 0 0 .038-.028l.02-.11a.033.033 0 0 0-.027-.038.034.034 0 0 0-.039.027z"/><path id="_499997840" class="fil1" d="M2.72 3.366a1.117 1.117 0 0 1-.248-.487l-.004-.02.014-.013c.113-.111.177-.28.225-.428l.008-.026h.027c.11.003.22.008.328.02.088.01.175.024.26.047.153.041.278.107.403.204l.015.011v.02c-.01.211-.098.449-.22.623a.72.72 0 0 1-.166.18.4.4 0 0 1-.26.098.418.418 0 0 1-.267-.116.814.814 0 0 1-.115-.113zm-.003.561c.128-.056.16-.114.168-.284.07.038.144.06.216.06a.487.487 0 0 0 .216-.051c.006.167.035.218.165.274.036-.027.073-.054.111-.079.042-.028.122-.084.175-.07l.34.084c.031.008.06.019.088.033V3.83c.003-.596.006-1.38-.297-1.864a.85.85 0 0 0-.33-.316.996.996 0 0 0-.468-.102.996.996 0 0 0-.468.102.85.85 0 0 0-.33.316c-.148.238-.229.61-.272.996a9.508 9.508 0 0 0-.049.95.417.417 0 0 1 .118-.05 3.277 3.277 0 0 1 .192-.053c.067-.017.203-.052.263-.006l.162.125z"/><path id="_499997720" class="fil1" d="M2.366 5.028h1.47a.692.692 0 0 1-.182-.424l-.004-.062h.673a.29.29 0 0 1-.12-.211c-.007-.085.023-.21.13-.208h.004a.36.36 0 0 0-.243-.205l-.34-.085c-.07-.018-.562.4-.65.467l-.585-.452c-.052-.045-.331.051-.405.07a.358.358 0 0 0-.272.348v.762h.452l.039-.372.033.372z"/></g></g></svg>